<svg xmlns="http://www.w3.org/2000/svg" width="17" height="14"><path d="M16.531.25a6.864 6.864 0 01-2.216.86A3.442 3.442 0 0011.77 0a3.509 3.509 0 00-3.488 3.53 3.649 3.649 0 00.09.81A9.869 9.869 0 011.184.64a3.572 3.572 0 001.079 4.72 3.515 3.515 0 01-1.579-.44v.04a3.536 3.536 0 002.8 3.47 3.47 3.47 0 01-.918.12 3.544 3.544 0 01-.657-.06 3.5 3.5 0 003.257 2.45 6.933 6.933 0 01-4.331 1.52 7.6 7.6 0 01-.832-.05A9.8 9.8 0 005.349 14a9.93 9.93 0 009.923-10.06l-.012-.46a6.951 6.951 0 001.743-1.83 7.088 7.088 0 01-2 .56A3.539 3.539 0 0016.531.25z" fill="#3d4677" fill-rule="evenodd"/></svg>