<svg xmlns="http://www.w3.org/2000/svg" width="16" height="16"><path d="M14.928 4.08a8.111 8.111 0 00-2.912-2.99 7.943 7.943 0 00-8.032 0 8.1 8.1 0 00-2.912 2.99A8.188 8.188 0 000 8.2a8.1 8.1 0 001.527 4.82 7.84 7.84 0 003.943 2.96.461.461 0 00.417-.07.427.427 0 00.135-.32v-1.53l-.24.04a3.131 3.131 0 01-.578.04 4.624 4.624 0 01-.724-.07 1.632 1.632 0 01-.7-.33 1.312 1.312 0 01-.459-.65l-.1-.25a2.732 2.732 0 00-.328-.54 1.262 1.262 0 00-.453-.41l-.073-.05a.98.98 0 01-.136-.13.613.613 0 01-.093-.15.087.087 0 01.052-.12.681.681 0 01.3-.05l.209.03a1.612 1.612 0 01.515.26 1.743 1.743 0 01.5.55 1.788 1.788 0 00.579.67 1.228 1.228 0 00.682.23 3.363 3.363 0 00.594-.05 2.377 2.377 0 00.469-.16 1.721 1.721 0 01.51-1.1 7.338 7.338 0 01-1.068-.19 4.532 4.532 0 01-.979-.42 2.73 2.73 0 01-.839-.72 3.441 3.441 0 01-.547-1.12 5.467 5.467 0 01-.213-1.6 3.168 3.168 0 01.823-2.2 2.945 2.945 0 01.072-2.18 1.449 1.449 0 01.9.14 6.454 6.454 0 01.871.42c.184.11.331.2.442.28a7.546 7.546 0 014 0l.4-.25a5.424 5.424 0 01.959-.47 1.387 1.387 0 01.844-.12 2.916 2.916 0 01.083 2.18 3.173 3.173 0 01.823 2.2 5.584 5.584 0 01-.214 1.61 3.365 3.365 0 01-.552 1.12 2.9 2.9 0 01-.844.71 4.532 4.532 0 01-.979.42 7.338 7.338 0 01-1.068.19 1.911 1.911 0 01.541 1.51v2.26a.434.434 0 00.131.32.447.447 0 00.411.07 7.842 7.842 0 003.944-2.96A8.1 8.1 0 0016 8.2a8.2 8.2 0 00-1.072-4.12z" fill="#3d4677" fill-rule="evenodd"/></svg>