<svg xmlns="http://www.w3.org/2000/svg" width="20" height="17"><path d="M19.23 0H6.92a.777.777 0 00-.77.77v6.96a1.5 1.5 0 01-1.53 1.54H.77a.777.777 0 00-.77.77v6.19a.777.777 0 00.77.77h18.46a.777.777 0 00.77-.77V.77a.777.777 0 00-.77-.77zm-2.31 9.27a3.22 3.22 0 01-3.07 3.09h-2.76l1.38 1.39a.773.773 0 010 1.09.761.761 0 01-1.09 0l-2.69-2.7a.785.785 0 010-1.1l2.69-2.7a.771.771 0 111.09 1.09l-1.38 1.39h2.76a1.706 1.706 0 001.53-1.55V7.73a.77.77 0 111.54 0v1.54z" fill="#845cff" fill-rule="evenodd"/></svg>