<svg class="logo-svg" xmlns="http://www.w3.org/2000/svg" width="152" height="46"><path fill="#32325d" d="M129.67 13.602a2.113 2.113 0 012.148 2.078v6.935c-.223 4.8-4.081 8.641-8.902 8.863-5.155.237-9.527-3.731-9.765-8.863V15.67a2.114 2.114 0 012.158-2.068h.009a2.113 2.113 0 012.148 2.078v6.935c.073 2.654 2.217 4.788 4.882 4.86 2.772.076 5.08-2.1 5.156-4.86V15.67a2.113 2.113 0 012.157-2.068h.008zm-47.168 13.87c2.732.037 4.977-2.135 5.018-4.856 0-2.63-2.101-4.783-4.742-4.857-2.694-.077-4.94 2.036-5.016 4.719-.076 2.682 2.046 4.918 4.74 4.994 0 0-2.732-.037 0 0zm0-13.87c5.073-.068 9.246 3.961 9.333 9.013 0 4.873-3.888 8.865-8.78 9.014-5 .153-9.177-3.76-9.33-8.738-.152-4.978 3.777-9.136 8.777-9.289 0 0-5.073.068 0 0zm60.176 13.87c2.731.037 4.977-2.135 5.018-4.856 0-2.63-2.102-4.783-4.742-4.857-2.694-.077-4.94 2.036-5.016 4.719-.076 2.682 2.046 4.918 4.74 4.994 0 0-2.732-.037 0 0zm0-13.87c.087 0 .174.002.261.004 5.155.143 9.217 4.42 9.072 9.554-.144 5.132-4.44 9.176-9.595 9.032-5.155-.144-9.216-4.421-9.072-9.554V6.434a2.154 2.154 0 012.084-2.075 2.155 2.155 0 012.231 2.075v8.592l.352-.21a9.651 9.651 0 014.667-1.214s-.088 0 0 0zm-80.04 13.87c2.733.037 4.979-2.135 5.019-4.856 0-2.63-2.101-4.783-4.742-4.857-2.694-.077-4.94 2.036-5.016 4.719-.076 2.682 2.046 4.918 4.74 4.994 0 0-2.732-.037 0 0zm7.178-13.87h.092a2.047 2.047 0 012.018 2.078v16.155c-.087 5.05-4.26 9.08-9.333 9.012a9.334 9.334 0 01-8.747-5.93l-.024-.047-.024-.093a2.06 2.06 0 011.337-2.591c.236-.073.481-.112.728-.117a2.134 2.134 0 012.017 1.378l.07.21a5.014 5.014 0 004.666 3.035c2.732.037 4.978-2.137 5.019-4.856v-1.63l-.352.21a9.651 9.651 0 01-4.667 1.214c-.2.006-.4.006-.6 0-5-.166-8.918-4.334-8.752-9.312.166-4.977 4.353-8.878 9.352-8.713a9.69 9.69 0 014.878 1.33l.234.14.117-.232a2.184 2.184 0 011.97-1.24s-.03 0 0 0zm32.667 0c5.08-.063 9.255 3.978 9.334 9.036v6.945a2.113 2.113 0 01-2.158 2.068h-.01a2.113 2.113 0 01-2.148-2.077v-6.936c-.072-2.653-2.216-4.788-4.882-4.86-2.771-.076-5.08 2.101-5.155 4.86v6.945a2.114 2.114 0 01-2.158 2.068h-.01a2.113 2.113 0 01-2.148-2.077V6.434a2.154 2.154 0 012.085-2.075 2.155 2.155 0 012.23 2.075v8.592l.352-.21a9.652 9.652 0 014.667-1.214zm-79.36 32.41C10.373 46.03.023 35.752.005 23.056A22.937 22.937 0 016.777 6.761a7.253 7.253 0 0110.225 0 7.177 7.177 0 010 10.18 8.56 8.56 0 00-.005 12.143c3.366 3.354 8.826 3.355 12.195.004a8.558 8.558 0 001.23-10.605l-5.935 5.908a1.963 1.963 0 01-2.767-.07 1.942 1.942 0 010-2.685l7.475-7.442a2.035 2.035 0 012.767 0 12.476 12.476 0 010 17.652c-4.903 4.856-12.826 4.856-17.729 0a12.476 12.476 0 010-17.652 3.3 3.3 0 00.99-2.341c0-.88-.356-1.72-.986-2.335a3.409 3.409 0 00-4.714 0c-7.492 7.466-7.485 19.566.014 27.024 7.5 7.459 19.651 7.453 27.143-.013 7.491-7.467 7.485-19.567-.014-27.025a19.236 19.236 0 00-13.564-5.59 1.939 1.939 0 01-1.946-1.93v-.008A1.977 1.977 0 0123.123.014a22.947 22.947 0 0116.345 6.747c9.022 8.972 9.03 23.526.02 32.508a23.136 23.136 0 01-16.365 6.743z"/></svg>