<svg xmlns="http://www.w3.org/2000/svg" width="152" height="46"><path d="M129.662 13.6a2.119 2.119 0 00-2.158 2.07v6.95a5.022 5.022 0 01-10.038 0v-6.94a2.116 2.116 0 00-2.148-2.08h-.009a2.119 2.119 0 00-2.158 2.07v6.95a9.346 9.346 0 0018.667 0v-6.94a2.117 2.117 0 00-2.149-2.08h-.009M82.5 27.47a4.857 4.857 0 115.018-4.85 4.934 4.934 0 01-5.018 4.85m0-13.87a9.019 9.019 0 109.333 9.02A9.191 9.191 0 0082.5 13.6m60.176 13.87a4.857 4.857 0 115.018-4.85 4.935 4.935 0 01-5.018 4.85m0-13.87a9.651 9.651 0 00-4.667 1.22l-.351.21v-8.6a2.16 2.16 0 00-4.316 0v16.21a9.337 9.337 0 109.6-9.03 2.278 2.278 0 00-.261-.01M62.642 27.47a4.857 4.857 0 115.018-4.85 4.934 4.934 0 01-5.018 4.85m7.175-13.87a2.2 2.2 0 00-1.969 1.24l-.117.24-.234-.14a9.73 9.73 0 00-4.878-1.34 9.02 9.02 0 10-.6 18.03q.3.015.6 0a9.641 9.641 0 004.667-1.21l.351-.21v1.63a4.934 4.934 0 01-5.018 4.85 5.01 5.01 0 01-4.666-3.03l-.07-.21a2.127 2.127 0 00-2.017-1.38 2.263 2.263 0 00-.728.12 2.051 2.051 0 00-1.336 2.59l.023.09.024.05a9.332 9.332 0 008.747 5.93 9.191 9.191 0 009.333-9.02V15.68a2.049 2.049 0 00-2.018-2.08h-.092m32.666 0a9.651 9.651 0 00-4.667 1.22l-.351.21v-8.6a2.16 2.16 0 00-4.316 0v23.14a2.11 2.11 0 002.149 2.08h.009a2.114 2.114 0 002.158-2.07v-6.94a5.021 5.021 0 0110.037 0v6.93a2.11 2.11 0 002.149 2.08h.009a2.112 2.112 0 002.157-2.07.016.016 0 000-.01v-6.93a9.205 9.205 0 00-9.334-9.04m-79.36 32.41A22.966 22.966 0 016.779 6.76a7.254 7.254 0 0110.224 0 7.175 7.175 0 010 10.18 8.557 8.557 0 000 12.14 8.609 8.609 0 0013.424-10.6l-5.934 5.91a1.965 1.965 0 01-2.767-.07 1.938 1.938 0 010-2.68l7.475-7.45a2.042 2.042 0 012.767 0 12.485 12.485 0 010 17.66 12.62 12.62 0 01-17.729 0 12.485 12.485 0 010-17.66 3.279 3.279 0 00.989-2.34 3.241 3.241 0 00-.985-2.33 3.412 3.412 0 00-4.714 0 19.045 19.045 0 00.014 27.02 19.257 19.257 0 0027.143-.01A19.112 19.112 0 0023.108 3.91a1.932 1.932 0 01-1.946-1.93A1.986 1.986 0 0123.129.01a23 23 0 11-.006 46z" fill="#fff" fill-rule="evenodd"/></svg>